<svg xmlns="http://www.w3.org/2000/svg" viewBox="0 0 512 512" fill="none">
  <!-- Outer container card wrapper matching the mockup card look -->
  <rect x="12" y="12" width="488" height="488" rx="100" fill="#FFFFFF" stroke="#E8F4E5" stroke-width="8"/>
  
  <!-- Calendar Rings / Pins (Fresh Green) -->
  <rect x="195" y="70" width="30" height="90" rx="15" fill="#5D9C59"/>
  <rect x="287" y="70" width="30" height="90" rx="15" fill="#5D9C59"/>

  <!-- Calendar Main Sheet -->
  <rect x="120" y="115" width="272" height="262" rx="42" fill="#FFFFFF" stroke="#5D9C59" stroke-width="20"/>

  <!-- Day Blocks Grid (Mock Calendar Grid matches screenshot logo) -->
  <!-- Row 1 -->
  <rect x="155" y="165" width="30" height="30" rx="8" fill="#E8F4E5"/>
  <rect x="200" y="165" width="30" height="30" rx="8" fill="#E8F4E5"/>
  <rect x="245" y="165" width="30" height="30" rx="8" fill="#E8F4E5"/>
  <rect x="290" y="165" width="30" height="30" rx="8" fill="#E8F4E5"/>
  <rect x="335" y="165" width="30" height="30" rx="8" fill="#E8F4E5"/>

  <!-- Row 2 -->
  <rect x="155" y="215" width="30" height="30" rx="8" fill="#E8F4E5"/>
  <rect x="200" y="215" width="30" height="30" rx="8" fill="#E8F4E5"/>
  <rect x="245" y="215" width="30" height="30" rx="8" fill="#5D9C59"/> <!-- Highlighted Green Day -->
  <rect x="290" y="215" width="30" height="30" rx="8" fill="#E8F4E5"/>
  <rect x="335" y="215" width="30" height="30" rx="8" fill="#E8F4E5"/>

  <!-- Row 3 -->
  <rect x="155" y="265" width="30" height="30" rx="8" fill="#E8F4E5"/>
  <rect x="200" y="265" width="30" height="30" rx="8" fill="#E8F4E5"/>
  <rect x="245" y="265" width="30" height="30" rx="8" fill="#E8F4E5"/>
  <rect x="290" y="265" width="30" height="30" rx="8" fill="#E8F4E5"/>
  <rect x="335" y="265" width="30" height="30" rx="8" fill="#E8F4E5"/>

  <!-- Row 4 -->
  <rect x="155" y="315" width="30" height="30" rx="8" fill="#E8F4E5"/>
  <rect x="200" y="315" width="30" height="30" rx="8" fill="#E8F4E5"/>
  <rect x="245" y="315" width="30" height="30" rx="8" fill="#E8F4E5"/>
  <rect x="290" y="315" width="30" height="30" rx="8" fill="#E8F4E5"/>
  <rect x="335" y="315" width="30" height="30" rx="8" fill="#E8F4E5"/>

  <!-- Leaf Overlays in Bottom Right Corner -->
  <!-- Small Leaf (light green) -->
  <path d="M285 390 C270 395 248 385 245 365 C242 350 258 335 272 328 C286 321 298 332 301 348 C303 365 292 385 285 390 Z" fill="#81C784"/>
  <path d="M245 365 Q273 346 301 348" stroke="#FFFFFF" stroke-width="2.5" stroke-linecap="round"/>

  <!-- Large Leaf (accent green) -->
  <path d="M410 320 C405 282 360 262 325 278 C305 295 305 322 325 352 C342 370 372 372 392 358 C410 345 412 332 410 320 Z" fill="#5D9C59"/>
  <!-- Leaf Veins (White lines) -->
  <path d="M325 278 Q360 315 392 358" stroke="#FFFFFF" stroke-width="4.5" stroke-linecap="round"/>
  <path d="M350 305 Q370 298 378 288" stroke="#FFFFFF" stroke-width="3" stroke-linecap="round"/>
  <path d="M368 325 Q385 322 392 312" stroke="#FFFFFF" stroke-width="3" stroke-linecap="round"/>
  <path d="M340 308 Q332 298 322 298" stroke="#FFFFFF" stroke-width="3" stroke-linecap="round"/>
</svg>